<svg width="464" height="260" viewBox="0 0 464 260" fill="none" xmlns="http://www.w3.org/2000/svg">
<mask id="mask0_32_54" style="mask-type:luminance" maskUnits="userSpaceOnUse" x="27" y="86" width="233" height="174">
<path d="M259.333 86.6667H27.3334V260H259.333V86.6667Z" fill="white"/>
</mask>
<g mask="url(#mask0_32_54)">
<mask id="mask1_32_54" style="mask-type:luminance" maskUnits="userSpaceOnUse" x="27" y="87" width="232" height="173">
<path d="M27.573 87.5781H258.552V259.682H27.573V87.5781Z" fill="white"/>
</mask>
<g mask="url(#mask1_32_54)">
<mask id="mask2_32_54" style="mask-type:luminance" maskUnits="userSpaceOnUse" x="27" y="87" width="232" height="173">
<path d="M45.5574 259.229H140.839C142.766 259.234 144.682 259.125 146.594 258.891C148.5 258.656 150.391 258.297 152.255 257.823C154.12 257.349 155.948 256.76 157.74 256.052C159.531 255.344 161.271 254.526 162.953 253.599C164.641 252.667 166.26 251.635 167.818 250.505C169.375 249.37 170.849 248.141 172.25 246.818C173.646 245.495 174.958 244.089 176.177 242.599C177.401 241.115 178.521 239.552 179.542 237.922L255.969 114.13C263.156 102.479 254.537 87.6511 240.573 87.6511H144.656C142.776 87.6407 140.906 87.75 139.042 87.9792C137.182 88.2084 135.339 88.5573 133.521 89.0209C131.703 89.4844 129.917 90.0625 128.172 90.75C126.427 91.4427 124.729 92.2396 123.089 93.1459C121.443 94.0521 119.859 95.0573 118.344 96.1615C116.828 97.2709 115.391 98.4688 114.026 99.7552C112.662 101.047 111.38 102.417 110.193 103.87C109 105.323 107.912 106.844 106.912 108.432L30.1667 232.786C22.974 244.396 31.6042 259.229 45.5574 259.229Z" fill="white"/>
</mask>
<g mask="url(#mask2_32_54)">
<path d="M27.573 87.6406V259.234H258.552V87.6406H27.573Z" fill="#6BFFF7"/>
</g>
</g>
</g>
<mask id="mask3_32_54" style="mask-type:luminance" maskUnits="userSpaceOnUse" x="0" y="0" width="234" height="175">
<path d="M234 0H0.666748V174.667H234V0Z" fill="white"/>
</mask>
<g mask="url(#mask3_32_54)">
<mask id="mask4_32_54" style="mask-type:luminance" maskUnits="userSpaceOnUse" x="1" y="1" width="232" height="173">
<path d="M1.65637 1.71362H232.641V173.922H1.65637V1.71362Z" fill="white"/>
</mask>
<g mask="url(#mask4_32_54)">
<mask id="mask5_32_54" style="mask-type:luminance" maskUnits="userSpaceOnUse" x="1" y="1" width="232" height="173">
<path d="M19.646 173.36H114.922C116.849 173.37 118.766 173.255 120.677 173.021C122.589 172.787 124.479 172.432 126.344 171.959C128.208 171.485 130.037 170.891 131.828 170.188C133.615 169.479 135.354 168.662 137.042 167.729C138.729 166.802 140.349 165.771 141.906 164.636C143.458 163.5 144.938 162.276 146.333 160.953C147.735 159.63 149.042 158.224 150.266 156.735C151.485 155.245 152.604 153.688 153.625 152.052L230.052 28.2658C237.245 16.6148 228.62 1.78143 214.662 1.78143H118.74C116.865 1.77622 114.995 1.88559 113.13 2.11476C111.266 2.34393 109.427 2.69288 107.604 3.15643C105.787 3.61997 104.005 4.19289 102.261 4.88559C100.511 5.57309 98.8179 6.36997 97.172 7.27622C95.5262 8.18247 93.9481 9.18768 92.4324 10.2971C90.9168 11.4012 89.4741 12.5991 88.1095 13.8908C86.7449 15.1773 85.4689 16.5523 84.2762 18.0002C83.0887 19.4533 81.9949 20.9741 81.0001 22.5679L4.25015 146.922C-2.93735 158.531 5.68765 173.36 19.646 173.36Z" fill="white"/>
</mask>
<g mask="url(#mask5_32_54)">
<path d="M1.65637 1.77612V173.37H232.641V1.77612H1.65637Z" fill="#FAFB63"/>
</g>
</g>
</g>
<path d="M267.249 260L246 232.876L261.617 160.081H296.974L284.724 217.285L293.664 228.819H368.439L382.548 217.285L428.701 0H464L414.536 232.876L382.199 260H267.249Z" fill="white"/>
</svg>
